<?xml version="1.0" standalone="no"?>
<!DOCTYPE svg PUBLIC "-//W3C//DTD SVG 20010904//EN"
 "http://www.w3.org/TR/2001/REC-SVG-20010904/DTD/svg10.dtd">
<svg version="1.0" xmlns="http://www.w3.org/2000/svg"
 width="923.000000pt" height="923.000000pt" viewBox="0 0 923.000000 923.000000"
 preserveAspectRatio="xMidYMid meet">
<metadata>
Created by potrace 1.11, written by Peter Selinger 2001-2013
</metadata>
<g transform="translate(0.000000,923.000000) scale(0.100000,-0.100000)"
fill="#000000" stroke="none">
<path d="M4868 9225 c-2 -1 -48 -5 -103 -9 -55 -3 -111 -8 -125 -10 -14 -3
-52 -7 -85 -11 -33 -3 -85 -10 -115 -15 -30 -5 -75 -12 -100 -15 -25 -4 -97
-17 -160 -31 -493 -105 -915 -264 -1345 -507 -80 -45 -324 -198 -350 -219 -5
-5 -59 -45 -120 -89 -180 -133 -330 -263 -505 -439 -91 -91 -179 -181 -195
-200 -67 -78 -141 -168 -165 -199 -14 -18 -38 -50 -55 -72 -16 -21 -39 -51
-51 -66 -21 -28 -158 -231 -181 -268 -68 -111 -113 -188 -113 -195 0 -5 -4
-10 -8 -12 -4 -1 -39 -66 -77 -143 -39 -77 -73 -141 -77 -143 -5 -2 -8 -9 -8
-16 0 -7 -17 -51 -39 -97 -21 -46 -45 -102 -52 -124 -8 -22 -16 -42 -19 -45
-5 -5 -38 -93 -45 -120 -2 -8 -11 -32 -19 -52 -9 -21 -17 -41 -17 -45 -2 -10
-4 -16 -25 -83 -9 -30 -17 -56 -16 -57 1 -2 -6 -22 -14 -45 -16 -47 -79 -301
-89 -358 -5 -34 -10 -57 -21 -110 -2 -14 -7 -38 -9 -55 -2 -16 -6 -41 -9 -55
-2 -14 -7 -47 -11 -75 -3 -27 -8 -63 -10 -80 -6 -41 -14 -123 -22 -235 -14
-191 -6 -671 12 -770 2 -14 7 -48 9 -75 3 -28 8 -72 11 -100 6 -48 8 -60 20
-130 3 -16 10 -57 16 -90 6 -33 22 -107 35 -165 14 -58 27 -116 30 -130 3 -14
15 -56 26 -95 12 -38 23 -77 24 -85 11 -55 135 -400 180 -499 99 -214 216
-442 287 -556 79 -127 161 -251 168 -253 5 -2 9 -8 9 -14 0 -6 18 -33 40 -62
49 -63 48 -62 84 -111 118 -159 443 -507 600 -640 32 -27 64 -55 70 -60 32
-29 122 -100 206 -164 52 -39 100 -75 105 -79 11 -9 205 -137 240 -159 54 -34
263 -153 267 -153 3 0 27 -12 54 -27 27 -15 55 -28 62 -30 8 -1 21 -8 30 -16
16 -13 245 -117 267 -121 6 -1 20 -8 33 -14 12 -7 22 -10 22 -6 0 3 6 2 13 -3
11 -10 114 -50 147 -59 8 -2 49 -15 90 -30 77 -27 259 -81 295 -87 11 -2 38
-9 60 -15 22 -6 51 -13 65 -16 14 -2 48 -9 75 -16 28 -6 66 -13 85 -16 19 -2
42 -6 50 -9 16 -4 47 -10 115 -20 23 -3 50 -7 61 -9 48 -10 162 -21 324 -32
134 -10 526 -9 650 0 52 5 115 10 140 12 25 1 55 5 67 8 12 2 48 7 80 11 32 3
69 8 83 10 14 3 39 7 55 10 137 20 489 103 593 139 23 8 42 13 42 9 0 -3 6 -1
13 4 6 6 24 13 39 17 15 3 40 11 55 18 15 6 30 12 33 12 8 2 133 47 155 56
211 89 239 102 360 162 115 57 323 172 373 206 9 6 66 43 125 82 60 39 114 75
120 80 7 6 62 47 122 92 61 46 115 87 121 93 6 5 33 28 59 50 100 83 144 123
285 265 151 151 192 195 275 295 28 33 56 66 63 73 24 26 37 12 -198 198 -154
121 -192 151 -223 177 -12 10 -35 28 -50 40 -16 12 -34 27 -40 32 -7 6 -32 26
-57 45 -25 19 -50 39 -57 45 -6 5 -24 20 -40 32 -15 12 -38 30 -49 40 -12 10
-36 29 -54 43 -64 49 -279 219 -364 288 -48 39 -56 45 -116 92 -25 19 -52 40
-60 47 -8 7 -73 58 -144 114 l-128 103 -46 -55 c-48 -56 -245 -255 -297 -299
-17 -14 -59 -48 -95 -75 -36 -28 -67 -52 -70 -55 -13 -13 -155 -104 -231 -147
-130 -75 -379 -191 -379 -176 0 3 -6 0 -14 -6 -8 -7 -22 -14 -32 -16 -11 -3
-57 -16 -104 -31 -47 -14 -93 -27 -103 -29 -10 -2 -26 -6 -35 -9 -9 -3 -28 -7
-42 -10 -14 -3 -36 -8 -50 -11 -14 -3 -41 -8 -60 -11 -19 -3 -48 -8 -65 -10
-186 -32 -537 -37 -715 -10 -14 2 -45 7 -70 10 -73 11 -106 18 -210 43 -36 8
-69 16 -75 17 -5 1 -14 4 -20 8 -5 3 -26 9 -45 14 -43 10 -41 9 -65 18 -11 4
-45 17 -75 28 -186 68 -388 171 -538 274 -35 24 -67 44 -72 44 -4 0 -10 3 -12
8 -1 4 -32 30 -68 57 -107 82 -270 237 -370 350 -253 286 -460 690 -555 1085
-20 84 -27 123 -50 270 -24 160 -24 521 1 657 3 15 7 42 9 58 17 142 101 449
160 581 41 93 110 239 115 244 3 3 13 21 23 40 33 61 52 95 57 100 3 3 20 28
37 55 127 200 358 451 563 611 274 214 589 372 918 460 106 28 111 29 192 44
101 18 125 21 165 25 22 3 67 7 100 11 60 6 348 6 415 0 65 -6 175 -18 195
-22 11 -2 47 -9 80 -15 68 -12 248 -55 285 -69 14 -5 66 -23 115 -41 147 -52
305 -127 440 -209 82 -49 249 -164 281 -193 7 -7 34 -30 61 -52 63 -52 247
-235 305 -304 l46 -54 68 54 c38 30 76 59 84 66 8 7 132 105 275 218 143 114
274 217 290 230 17 14 77 62 135 107 58 46 110 87 116 93 6 5 24 20 40 32 16
12 103 81 194 154 91 72 180 143 199 157 19 15 39 32 45 37 6 6 37 29 68 53
85 65 85 66 52 109 -59 78 -170 200 -324 353 -182 183 -322 305 -523 453 -107
80 -390 263 -447 290 -8 4 -31 17 -50 28 -38 23 -283 147 -340 171 -19 9 -57
25 -84 37 -55 25 -146 62 -161 66 -5 1 -23 7 -40 14 -46 19 -198 72 -219 76
-11 3 -40 11 -66 20 -26 9 -55 17 -66 20 -10 2 -44 11 -74 20 -61 17 -296 71
-350 80 -19 3 -60 10 -90 15 -94 16 -257 36 -365 46 -57 5 -622 14 -627 9z"/>
</g>
</svg>
